<svg xmlns="http://www.w3.org/2000/svg" width="43.017" height="43.998" viewBox="0 0 43.017 43.998"><defs><style>.a{fill:#fff;}</style></defs><g transform="translate(-5.713)"><g transform="translate(42.263 1.27)"><path class="a" d="M435.55,15.05a.569.569,0,0,0-.49-.272.579.579,0,0,0-.583.5c-.612,4.158-5.43,7.072-2.518,11.188h4.018c2.047-1.552,2.147-7.306-.427-11.411Z" transform="translate(-431.032 -14.778)"/><path class="a" d="M441.829,180.832h4.018v3.406h-4.018Z" transform="translate(-440.901 -166.562)"/><path class="a" d="M443.266,270.729a1.359,1.359,0,1,0,2.717,0l.576-20.155h-3.87Z" transform="translate(-441.688 -230.311)"/></g><g transform="translate(5.713)"><path class="a" d="M99.2,273.02a1.292,1.292,0,1,0,.416,2.544,1.289,1.289,0,0,0-.416-2.544Z" transform="translate(-90.102 -249.542)"/><path class="a" d="M168.343,382.823a1.289,1.289,0,1,0,1.48,1.064A1.29,1.29,0,0,0,168.343,382.823Z" transform="translate(-153.38 -349.91)"/><circle class="a" cx="1.289" cy="1.289" r="1.289" transform="translate(9.552 13.936) rotate(-50.723)"/><path class="a" d="M37.814,11.961C37.814,4.995,30.343,0,22.609,0c-8.3,0-16.9,5.75-16.9,20.984C5.713,37.242,15.955,44,24.252,44c5.648,0,10.4-3.133,10.4-8.531,0-8.421-6.42-3.94-6.42-10.212,0-6.556,9.586-2.954,9.586-13.295ZM16.457,9.933a3.867,3.867,0,1,1-3.193,4.44,3.871,3.871,0,0,1,3.193-4.44Zm-3.715,17.98a3.769,3.769,0,0,1-.888-5.437,3.974,3.974,0,0,1,2.541-1.542,3.867,3.867,0,1,1,1.247,7.633,3.975,3.975,0,0,1-2.9-.653ZM21.508,38a3.867,3.867,0,1,1,3.193-4.44A3.871,3.871,0,0,1,21.508,38ZM27.93,13.355a3.867,3.867,0,1,1,3.193-4.44A3.871,3.871,0,0,1,27.93,13.355Z" transform="translate(-5.713 0)"/><circle class="a" cx="1.289" cy="1.289" r="1.289" transform="translate(19.774 9.424) rotate(-41.676)"/></g></g></svg>