<svg xmlns="http://www.w3.org/2000/svg" width="41.448" height="38.858" viewBox="0 0 41.448 38.858"><defs><style>.a{fill:#fff;}</style></defs><path class="a" d="M38.426,0H3.022A3.026,3.026,0,0,0,0,3.022V7.34a3.026,3.026,0,0,0,3.022,3.022h35.4A3.026,3.026,0,0,0,41.448,7.34V3.022A3.026,3.026,0,0,0,38.426,0Z"/><path class="a" d="M28.975,9H16.022A3.037,3.037,0,0,0,13,12.022v17.27a3.037,3.037,0,0,0,3.022,3.022H28.975A3.037,3.037,0,0,0,32,29.292V12.022A3.037,3.037,0,0,0,28.975,9ZM15.591,12.022a.428.428,0,0,1,.432-.432H28.975a.428.428,0,0,1,.432.432V20l-.259-.311a3.141,3.141,0,0,0-4.663,0l-1.762,2.141a.5.5,0,0,1-.328.155.447.447,0,0,1-.311-.121l-.9-.9a3.044,3.044,0,0,0-4.283,0l-1.313,1.313Z" transform="translate(9.451 6.543)"/><path class="a" d="M1.3,11.591H17.7A1.3,1.3,0,1,0,17.7,9H1.3a1.3,1.3,0,0,0,0,2.591Z" transform="translate(0 6.543)"/><path class="a" d="M1.3,14.591H17.7A1.3,1.3,0,1,0,17.7,12H1.3a1.3,1.3,0,0,0,0,2.591Z" transform="translate(0 8.724)"/><path class="a" d="M1.3,17.591H17.7A1.3,1.3,0,0,0,17.7,15H1.3a1.3,1.3,0,1,0,0,2.591Z" transform="translate(0 10.905)"/><path class="a" d="M1.3,20.591H17.7A1.3,1.3,0,0,0,17.7,18H1.3a1.3,1.3,0,0,0,0,2.591Z" transform="translate(0 13.086)"/><path class="a" d="M1.3,23.591H17.7A1.3,1.3,0,0,0,17.7,21H1.3a1.3,1.3,0,0,0,0,2.591Z" transform="translate(0 15.267)"/></svg>