<svg xmlns="http://www.w3.org/2000/svg" width="41.724" height="41.724" viewBox="0 0 41.724 41.724">
  <defs>
    <style>
      .cls-1 {
        fill: #b39bff;
      }
    </style>
  </defs>
  <g id="computer_coding" data-name="computer coding" transform="translate(-4 -4)">
    <path id="Path_236" data-name="Path 236" class="cls-1" d="M26.679,52l-.5,2.98h8.673l-.5-2.98Z" transform="translate(-5.654 -12.236)"/>
    <path id="Path_237" data-name="Path 237" class="cls-1" d="M20,59.49H37.882L36.764,58H21.118Z" transform="translate(-4.079 -13.766)"/>
    <path id="Path_238" data-name="Path 238" class="cls-1" d="M14.745,29.882H40.078a.745.745,0,0,0,.745-.745V12H14V29.137A.745.745,0,0,0,14.745,29.882ZM30.61,17l1.054-1.054,4.47,4.47a.745.745,0,0,1,0,1.054l-4.47,4.47L30.61,24.885l3.944-3.944Zm-1.67-3,1.416.471-4.47,13.411-1.416-.471ZM18.689,20.414l4.47-4.47L24.213,17l-3.944,3.944,3.944,3.944-1.054,1.054-4.47-4.47a.745.745,0,0,1,0-1.054Z" transform="translate(-2.549 -2.039)"/>
    <path id="Path_239" data-name="Path 239" class="cls-1" d="M44.979,16H39.764V30.156a2.242,2.242,0,0,1-2.235,2.235h-2.98v1.49h5.216v1.49H33.8a.745.745,0,0,1-.745-.745V32.392h-4.47v2.98H27.1v-2.98h-4.47v2.98h-1.49v-2.98h-4.47v2.235a.745.745,0,0,1-.745.745H9.961v-1.49h5.216v-1.49H12.2a2.242,2.242,0,0,1-2.235-2.235V16H4.745A.745.745,0,0,0,4,16.745V36.862H45.724V16.745A.745.745,0,0,0,44.979,16Z" transform="translate(0 -3.059)"/>
    <path id="Path_240" data-name="Path 240" class="cls-1" d="M4,48.235a.745.745,0,0,0,.745.745H44.979a.745.745,0,0,0,.745-.745V46H4Z" transform="translate(0 -10.707)"/>
    <path id="Path_241" data-name="Path 241" class="cls-1" d="M40.823,4.745A.745.745,0,0,0,40.078,4H14.745A.745.745,0,0,0,14,4.745V8.47H40.823ZM33.372,6.98h-1.49V5.49h1.49Zm2.98,0h-1.49V5.49h1.49Zm2.98,0h-1.49V5.49h1.49Z" transform="translate(-2.549)"/>
  </g>
</svg>
