<svg xmlns="http://www.w3.org/2000/svg" width="41.268" height="49.521" viewBox="0 0 41.268 49.521">
  <defs>
    <style>
      .cls-1 {
        fill: #b39bff;
      }
    </style>
  </defs>
  <path id="file_3_" data-name="file (3)" class="cls-1" d="M37.594,0H7.674A5.679,5.679,0,0,0,2,5.674V43.847a5.679,5.679,0,0,0,5.674,5.674H37.594a5.679,5.679,0,0,0,5.674-5.674V5.674A5.679,5.679,0,0,0,37.594,0ZM20.055,26.824V16.664A10.293,10.293,0,1,1,12.414,35.1L19.6,27.918a1.541,1.541,0,0,0,.454-1.094Zm-3.1-10.16v9.521l-6.733,6.733A10.232,10.232,0,0,1,16.96,16.664ZM35.53,43.847H9.738a1.548,1.548,0,0,1,0-3.1H35.53a1.548,1.548,0,1,1,0,3.1Zm0-6.706h-3.1a1.548,1.548,0,1,1,0-3.1h3.1a1.548,1.548,0,1,1,0,3.1Zm0-5.674h-3.1a1.548,1.548,0,1,1,0-3.1h3.1a1.548,1.548,0,0,1,0,3.1Zm0-6.19h-3.1a1.548,1.548,0,1,1,0-3.1h3.1a1.548,1.548,0,0,1,0,3.1Zm0-5.674h-3.1a1.548,1.548,0,1,1,0-3.1h3.1a1.548,1.548,0,0,1,0,3.1Z" transform="translate(-2)"/>
</svg>
